<?xml version="1.0" encoding="utf-8"?>
<!-- Generator: Adobe Illustrator 24.0.1, SVG Export Plug-In . SVG Version: 6.00 Build 0)  -->
<svg version="1.1" id="图层_1" xmlns="http://www.w3.org/2000/svg" xmlns:xlink="http://www.w3.org/1999/xlink" x="0px" y="0px"
	 viewBox="0 0 233.3 184.9" style="enable-background:new 0 0 233.3 184.9;" xml:space="preserve">
<style type="text/css">
	.st0{fill:url(#SVGID_1_);}
	.st1{fill:url(#SVGID_2_);}
	.st2{fill:url(#SVGID_3_);}
	.st3{fill:url(#SVGID_4_);}
	.st4{fill:url(#SVGID_5_);}
	.st5{fill:url(#SVGID_6_);}
	.st6{fill:url(#SVGID_7_);}
	.st7{fill:url(#SVGID_8_);}
	.st8{fill:url(#SVGID_9_);}
	.st9{fill:url(#SVGID_10_);}
	.st10{fill:url(#SVGID_11_);}
	.st11{fill:url(#SVGID_12_);}
	.st12{fill:url(#SVGID_13_);}
	.st13{fill:url(#SVGID_14_);}
	.st14{fill:url(#SVGID_15_);}
	.st15{fill:url(#SVGID_16_);}
	.st16{fill:url(#SVGID_17_);}
	.st17{fill:url(#SVGID_18_);}
	.st18{fill:url(#SVGID_19_);}
	.st19{fill:url(#SVGID_20_);}
	.st20{fill:url(#SVGID_21_);}
	.st21{fill:url(#SVGID_22_);}
	.st22{fill:url(#SVGID_23_);}
	.st23{fill:url(#SVGID_24_);}
	.st24{fill:url(#SVGID_25_);}
	.st25{fill:url(#SVGID_26_);}
	.st26{fill:url(#SVGID_27_);}
	.st27{fill:url(#SVGID_28_);}
	.st28{fill:url(#SVGID_29_);}
	.st29{fill:url(#SVGID_30_);}
	.st30{fill:url(#SVGID_31_);}
	.st31{fill:url(#SVGID_32_);}
	.st32{fill:url(#SVGID_33_);}
	.st33{fill:url(#SVGID_34_);}
	.st34{fill:url(#SVGID_35_);}
	.st35{fill:url(#SVGID_36_);}
	.st36{fill:url(#SVGID_37_);}
	.st37{fill:url(#SVGID_38_);}
	.st38{fill:url(#SVGID_39_);}
	.st39{fill:url(#SVGID_40_);}
	.st40{fill:url(#SVGID_41_);}
	.st41{fill:url(#SVGID_42_);}
	.st42{fill:url(#SVGID_43_);}
	.st43{fill:url(#SVGID_44_);}
	.st44{fill:url(#SVGID_45_);}
	.st45{fill:url(#SVGID_46_);}
	.st46{fill:url(#SVGID_47_);}
	.st47{fill:url(#SVGID_48_);}
	.st48{fill:url(#SVGID_49_);}
	.st49{fill:url(#SVGID_50_);}
	.st50{fill:url(#SVGID_51_);}
	.st51{fill:url(#SVGID_52_);}
	.st52{fill:url(#SVGID_53_);}
	.st53{fill:url(#SVGID_54_);}
	.st54{fill:url(#SVGID_55_);}
	.st55{fill:url(#SVGID_56_);}
	.st56{fill:url(#SVGID_57_);}
	.st57{fill:url(#SVGID_58_);}
	.st58{fill:url(#SVGID_59_);}
	.st59{fill:url(#SVGID_60_);}
	.st60{fill:url(#SVGID_61_);}
	.st61{fill:url(#SVGID_62_);}
	.st62{fill:url(#SVGID_63_);}
	.st63{fill:url(#SVGID_64_);}
	.st64{fill:url(#SVGID_65_);}
	.st65{fill:url(#SVGID_66_);}
	.st66{fill:url(#SVGID_67_);}
	.st67{fill:url(#SVGID_68_);}
	.st68{fill:url(#SVGID_69_);}
	.st69{fill:url(#SVGID_70_);}
	.st70{fill:url(#SVGID_71_);}
	.st71{fill:url(#SVGID_72_);}
	.st72{fill:url(#SVGID_73_);}
	.st73{fill:url(#SVGID_74_);}
	.st74{fill:url(#SVGID_75_);}
	.st75{fill:url(#SVGID_76_);}
	.st76{fill:url(#SVGID_77_);}
	.st77{fill:url(#SVGID_78_);}
	.st78{fill:url(#SVGID_79_);}
	.st79{fill:url(#SVGID_80_);}
	.st80{fill:url(#SVGID_81_);}
	.st81{fill:url(#SVGID_82_);}
	.st82{fill:url(#SVGID_83_);}
	.st83{fill:url(#SVGID_84_);}
	.st84{fill:url(#SVGID_85_);}
	.st85{fill:url(#SVGID_86_);}
	.st86{fill:url(#SVGID_87_);}
	.st87{fill:url(#SVGID_88_);}
	.st88{fill:url(#SVGID_89_);}
	.st89{fill:url(#SVGID_90_);}
	.st90{fill:url(#SVGID_91_);}
	.st91{fill:url(#SVGID_92_);}
	.st92{fill:url(#SVGID_93_);}
	.st93{fill:url(#SVGID_94_);}
	.st94{fill:url(#SVGID_95_);}
	.st95{fill:url(#SVGID_96_);}
	.st96{fill:url(#SVGID_97_);}
	.st97{fill:url(#SVGID_98_);}
	.st98{fill:url(#SVGID_99_);}
	.st99{fill:url(#SVGID_100_);}
	.st100{fill:url(#SVGID_101_);}
	.st101{fill:url(#SVGID_102_);}
</style>
<title>资源 1</title>
<g>
	<g>
		<linearGradient id="SVGID_1_" gradientUnits="userSpaceOnUse" x1="0.3529" y1="8.85" x2="230.0019" y2="8.85">
			<stop  offset="0" style="stop-color:#FF0000"/>
			<stop  offset="0.5" style="stop-color:#EEFA29"/>
			<stop  offset="1" style="stop-color:#0EFF47"/>
		</linearGradient>
		<rect x="114.8" y="-0.1" class="st0" width="2" height="18"/>
		<linearGradient id="SVGID_2_" gradientUnits="userSpaceOnUse" x1="0.3529" y1="36.05" x2="230.0019" y2="36.05">
			<stop  offset="0" style="stop-color:#FF0000"/>
			<stop  offset="0.5" style="stop-color:#EEFA29"/>
			<stop  offset="1" style="stop-color:#0EFF47"/>
		</linearGradient>
		<rect x="114.8" y="32.1" class="st1" width="2" height="8"/>
	</g>
	<g>
		<linearGradient id="SVGID_3_" gradientUnits="userSpaceOnUse" x1="0.3529" y1="9.4301" x2="230.0019" y2="9.4301">
			<stop  offset="0" style="stop-color:#FF0000"/>
			<stop  offset="0.5" style="stop-color:#EEFA29"/>
			<stop  offset="1" style="stop-color:#0EFF47"/>
		</linearGradient>
		<polygon class="st2" points="104.7,0.6 106.2,18.5 108.2,18.3 106.7,0.4 		"/>
		<linearGradient id="SVGID_4_" gradientUnits="userSpaceOnUse" x1="0.3529" y1="36.5266" x2="230.0019" y2="36.5266">
			<stop  offset="0" style="stop-color:#FF0000"/>
			<stop  offset="0.5" style="stop-color:#EEFA29"/>
			<stop  offset="1" style="stop-color:#0EFF47"/>
		</linearGradient>
		<polygon class="st3" points="108.2,40.6 110.2,40.4 109.5,32.5 107.5,32.6 		"/>
	</g>
	<g>
		<linearGradient id="SVGID_5_" gradientUnits="userSpaceOnUse" x1="0.3529" y1="10.8235" x2="230.0019" y2="10.8235">
			<stop  offset="0" style="stop-color:#FF0000"/>
			<stop  offset="0.5" style="stop-color:#EEFA29"/>
			<stop  offset="1" style="stop-color:#0EFF47"/>
		</linearGradient>
		<polygon class="st4" points="94.6,2.1 97.8,19.9 99.7,19.5 96.6,1.8 		"/>
		<linearGradient id="SVGID_6_" gradientUnits="userSpaceOnUse" x1="0.3529" y1="37.6103" x2="230.0019" y2="37.6103">
			<stop  offset="0" style="stop-color:#FF0000"/>
			<stop  offset="0.5" style="stop-color:#EEFA29"/>
			<stop  offset="1" style="stop-color:#0EFF47"/>
		</linearGradient>
		<polygon class="st5" points="101.6,41.7 103.6,41.4 102.2,33.5 100.2,33.8 		"/>
	</g>
	<g>
		<linearGradient id="SVGID_7_" gradientUnits="userSpaceOnUse" x1="0.3529" y1="13.0196" x2="230.0019" y2="13.0196">
			<stop  offset="0" style="stop-color:#FF0000"/>
			<stop  offset="0.5" style="stop-color:#EEFA29"/>
			<stop  offset="1" style="stop-color:#0EFF47"/>
		</linearGradient>
		<polygon class="st6" points="84.8,4.6 89.4,22 91.4,21.5 86.7,4.1 		"/>
		<linearGradient id="SVGID_8_" gradientUnits="userSpaceOnUse" x1="0.3529" y1="39.2928" x2="230.0019" y2="39.2928">
			<stop  offset="0" style="stop-color:#FF0000"/>
			<stop  offset="0.5" style="stop-color:#EEFA29"/>
			<stop  offset="1" style="stop-color:#0EFF47"/>
		</linearGradient>
		<polygon class="st7" points="95.2,43.4 97.1,42.9 95,35.2 93.1,35.7 		"/>
	</g>
	<g>
		<linearGradient id="SVGID_9_" gradientUnits="userSpaceOnUse" x1="0.3529" y1="16.0016" x2="230.0019" y2="16.0016">
			<stop  offset="0" style="stop-color:#FF0000"/>
			<stop  offset="0.5" style="stop-color:#EEFA29"/>
			<stop  offset="1" style="stop-color:#0EFF47"/>
		</linearGradient>
		<polygon class="st8" points="75.2,7.9 81.3,24.8 83.2,24.1 77,7.2 		"/>
		<linearGradient id="SVGID_10_" gradientUnits="userSpaceOnUse" x1="0.3529" y1="41.5613" x2="230.0019" y2="41.5613">
			<stop  offset="0" style="stop-color:#FF0000"/>
			<stop  offset="0.5" style="stop-color:#EEFA29"/>
			<stop  offset="1" style="stop-color:#0EFF47"/>
		</linearGradient>
		<polygon class="st9" points="88.9,45.7 90.8,45 88,37.5 86.2,38.1 		"/>
	</g>
	<g>
		<linearGradient id="SVGID_11_" gradientUnits="userSpaceOnUse" x1="0.3529" y1="19.747" x2="230.0019" y2="19.747">
			<stop  offset="0" style="stop-color:#FF0000"/>
			<stop  offset="0.5" style="stop-color:#EEFA29"/>
			<stop  offset="1" style="stop-color:#0EFF47"/>
		</linearGradient>
		<polygon class="st10" points="65.9,12 73.5,28.3 75.3,27.5 67.7,11.2 		"/>
		<linearGradient id="SVGID_12_" gradientUnits="userSpaceOnUse" x1="0.3529" y1="44.3986" x2="230.0019" y2="44.3986">
			<stop  offset="0" style="stop-color:#FF0000"/>
			<stop  offset="0.5" style="stop-color:#EEFA29"/>
			<stop  offset="1" style="stop-color:#0EFF47"/>
		</linearGradient>
		<polygon class="st11" points="82.9,48.4 84.7,47.6 81.3,40.4 79.5,41.2 		"/>
	</g>
	<g>
		<linearGradient id="SVGID_13_" gradientUnits="userSpaceOnUse" x1="0.3529" y1="24.2271" x2="230.0019" y2="24.2271">
			<stop  offset="0" style="stop-color:#FF0000"/>
			<stop  offset="0.5" style="stop-color:#EEFA29"/>
			<stop  offset="1" style="stop-color:#0EFF47"/>
		</linearGradient>
		<polygon class="st12" points="57,16.9 66,32.5 67.7,31.5 58.7,15.9 		"/>
		<linearGradient id="SVGID_14_" gradientUnits="userSpaceOnUse" x1="0.3529" y1="47.783" x2="230.0019" y2="47.783">
			<stop  offset="0" style="stop-color:#FF0000"/>
			<stop  offset="0.5" style="stop-color:#EEFA29"/>
			<stop  offset="1" style="stop-color:#0EFF47"/>
		</linearGradient>
		<polygon class="st13" points="77.1,51.7 78.8,50.7 74.8,43.8 73.1,44.8 		"/>
	</g>
	<g>
		<linearGradient id="SVGID_15_" gradientUnits="userSpaceOnUse" x1="0.3529" y1="29.408" x2="230.0019" y2="29.408">
			<stop  offset="0" style="stop-color:#FF0000"/>
			<stop  offset="0.5" style="stop-color:#EEFA29"/>
			<stop  offset="1" style="stop-color:#0EFF47"/>
		</linearGradient>
		<polygon class="st14" points="48.5,22.6 58.9,37.4 60.5,36.2 50.2,21.5 		"/>
		<linearGradient id="SVGID_16_" gradientUnits="userSpaceOnUse" x1="0.3529" y1="51.6889" x2="230.0019" y2="51.6889">
			<stop  offset="0" style="stop-color:#FF0000"/>
			<stop  offset="0.5" style="stop-color:#EEFA29"/>
			<stop  offset="1" style="stop-color:#0EFF47"/>
		</linearGradient>
		<polygon class="st15" points="71.6,55.5 73.2,54.4 68.7,47.8 67,49 		"/>
	</g>
	<g>
		<linearGradient id="SVGID_17_" gradientUnits="userSpaceOnUse" x1="0.3529" y1="35.25" x2="230.0019" y2="35.25">
			<stop  offset="0" style="stop-color:#FF0000"/>
			<stop  offset="0.5" style="stop-color:#EEFA29"/>
			<stop  offset="1" style="stop-color:#0EFF47"/>
		</linearGradient>
		<polygon class="st16" points="40.6,29 52.2,42.8 53.7,41.5 42.2,27.7 		"/>
		<linearGradient id="SVGID_18_" gradientUnits="userSpaceOnUse" x1="0.3529" y1="56.0865" x2="230.0019" y2="56.0865">
			<stop  offset="0" style="stop-color:#FF0000"/>
			<stop  offset="0.5" style="stop-color:#EEFA29"/>
			<stop  offset="1" style="stop-color:#0EFF47"/>
		</linearGradient>
		<polygon class="st17" points="66.5,59.8 68,58.5 62.9,52.4 61.3,53.7 		"/>
	</g>
	<g>
		<linearGradient id="SVGID_19_" gradientUnits="userSpaceOnUse" x1="0.3529" y1="41.7089" x2="230.0019" y2="41.7089">
			<stop  offset="0" style="stop-color:#FF0000"/>
			<stop  offset="0.5" style="stop-color:#EEFA29"/>
			<stop  offset="1" style="stop-color:#0EFF47"/>
		</linearGradient>
		<polygon class="st18" points="33.3,36.1 46.1,48.8 47.5,47.4 34.7,34.6 		"/>
		<linearGradient id="SVGID_20_" gradientUnits="userSpaceOnUse" x1="0.3529" y1="60.9422" x2="230.0019" y2="60.9422">
			<stop  offset="0" style="stop-color:#FF0000"/>
			<stop  offset="0.5" style="stop-color:#EEFA29"/>
			<stop  offset="1" style="stop-color:#0EFF47"/>
		</linearGradient>
		<polygon class="st19" points="61.8,64.5 63.2,63.1 57.5,57.4 56.1,58.8 		"/>
	</g>
	<g>
		<linearGradient id="SVGID_21_" gradientUnits="userSpaceOnUse" x1="0.3529" y1="48.7354" x2="230.0019" y2="48.7354">
			<stop  offset="0" style="stop-color:#FF0000"/>
			<stop  offset="0.5" style="stop-color:#EEFA29"/>
			<stop  offset="1" style="stop-color:#0EFF47"/>
		</linearGradient>
		<polygon class="st20" points="26.7,43.7 40.4,55.3 41.7,53.8 27.9,42.2 		"/>
		<linearGradient id="SVGID_22_" gradientUnits="userSpaceOnUse" x1="0.3529" y1="66.2193" x2="230.0019" y2="66.2193">
			<stop  offset="0" style="stop-color:#FF0000"/>
			<stop  offset="0.5" style="stop-color:#EEFA29"/>
			<stop  offset="1" style="stop-color:#0EFF47"/>
		</linearGradient>
		<polygon class="st21" points="57.5,69.6 58.7,68 52.6,62.9 51.3,64.4 		"/>
	</g>
	<g>
		<linearGradient id="SVGID_23_" gradientUnits="userSpaceOnUse" x1="0.3529" y1="56.2761" x2="230.0019" y2="56.2761">
			<stop  offset="0" style="stop-color:#FF0000"/>
			<stop  offset="0.5" style="stop-color:#EEFA29"/>
			<stop  offset="1" style="stop-color:#0EFF47"/>
		</linearGradient>
		<polygon class="st22" points="20.7,51.9 35.4,62.3 36.6,60.6 21.8,50.3 		"/>
		<linearGradient id="SVGID_24_" gradientUnits="userSpaceOnUse" x1="0.3529" y1="71.8774" x2="230.0019" y2="71.8774">
			<stop  offset="0" style="stop-color:#FF0000"/>
			<stop  offset="0.5" style="stop-color:#EEFA29"/>
			<stop  offset="1" style="stop-color:#0EFF47"/>
		</linearGradient>
		<polygon class="st23" points="53.6,75 54.8,73.4 48.2,68.8 47.1,70.4 		"/>
	</g>
	<g>
		<linearGradient id="SVGID_25_" gradientUnits="userSpaceOnUse" x1="0.3529" y1="64.2735" x2="230.0019" y2="64.2735">
			<stop  offset="0" style="stop-color:#FF0000"/>
			<stop  offset="0.5" style="stop-color:#EEFA29"/>
			<stop  offset="1" style="stop-color:#0EFF47"/>
		</linearGradient>
		<polygon class="st24" points="15.4,60.6 31,69.6 32,67.9 16.4,58.9 		"/>
		<linearGradient id="SVGID_26_" gradientUnits="userSpaceOnUse" x1="0.3529" y1="77.8736" x2="230.0019" y2="77.8736">
			<stop  offset="0" style="stop-color:#FF0000"/>
			<stop  offset="0.5" style="stop-color:#EEFA29"/>
			<stop  offset="1" style="stop-color:#0EFF47"/>
		</linearGradient>
		<polygon class="st25" points="50.3,80.7 51.3,79 44.3,75 43.3,76.7 		"/>
	</g>
	<g>
		<linearGradient id="SVGID_27_" gradientUnits="userSpaceOnUse" x1="0.3529" y1="72.6669" x2="230.0019" y2="72.6669">
			<stop  offset="0" style="stop-color:#FF0000"/>
			<stop  offset="0.5" style="stop-color:#EEFA29"/>
			<stop  offset="1" style="stop-color:#0EFF47"/>
		</linearGradient>
		<polygon class="st26" points="11,69.8 27.3,77.4 28.1,75.6 11.8,68 		"/>
		<linearGradient id="SVGID_28_" gradientUnits="userSpaceOnUse" x1="0.3529" y1="84.1621" x2="230.0019" y2="84.1621">
			<stop  offset="0" style="stop-color:#FF0000"/>
			<stop  offset="0.5" style="stop-color:#EEFA29"/>
			<stop  offset="1" style="stop-color:#0EFF47"/>
		</linearGradient>
		<polygon class="st27" points="47.4,86.8 48.3,84.9 41,81.6 40.2,83.4 		"/>
	</g>
	<g>
		<linearGradient id="SVGID_29_" gradientUnits="userSpaceOnUse" x1="0.3529" y1="81.3923" x2="230.0019" y2="81.3923">
			<stop  offset="0" style="stop-color:#FF0000"/>
			<stop  offset="0.5" style="stop-color:#EEFA29"/>
			<stop  offset="1" style="stop-color:#0EFF47"/>
		</linearGradient>
		<polygon class="st28" points="7.3,79.3 24.2,85.4 24.9,83.5 8,77.4 		"/>
		<linearGradient id="SVGID_30_" gradientUnits="userSpaceOnUse" x1="0.3529" y1="90.6952" x2="229.9972" y2="90.6952">
			<stop  offset="0" style="stop-color:#FF0000"/>
			<stop  offset="0.5" style="stop-color:#EEFA29"/>
			<stop  offset="1" style="stop-color:#0EFF47"/>
		</linearGradient>
		<polygon class="st29" points="45.1,93 45.8,91.1 38.3,88.4 37.6,90.3 		"/>
	</g>
	<g>
		<linearGradient id="SVGID_31_" gradientUnits="userSpaceOnUse" x1="0.3529" y1="90.3833" x2="230.0019" y2="90.3833">
			<stop  offset="0" style="stop-color:#FF0000"/>
			<stop  offset="0.5" style="stop-color:#EEFA29"/>
			<stop  offset="1" style="stop-color:#0EFF47"/>
		</linearGradient>
		<polygon class="st30" points="4.5,89 21.9,93.7 22.4,91.7 5,87.1 		"/>
		<linearGradient id="SVGID_32_" gradientUnits="userSpaceOnUse" x1="0.3529" y1="97.4232" x2="230.0019" y2="97.4232">
			<stop  offset="0" style="stop-color:#FF0000"/>
			<stop  offset="0.5" style="stop-color:#EEFA29"/>
			<stop  offset="1" style="stop-color:#0EFF47"/>
		</linearGradient>
		<polygon class="st31" points="43.4,99.4 43.9,97.5 36.1,95.4 35.6,97.4 		"/>
	</g>
	<g>
		<linearGradient id="SVGID_33_" gradientUnits="userSpaceOnUse" x1="0.3529" y1="99.5715" x2="230.0019" y2="99.5715">
			<stop  offset="0" style="stop-color:#FF0000"/>
			<stop  offset="0.5" style="stop-color:#EEFA29"/>
			<stop  offset="1" style="stop-color:#0EFF47"/>
		</linearGradient>
		<polygon class="st32" points="2.6,99 20.3,102.1 20.6,100.1 2.9,97 		"/>
		<linearGradient id="SVGID_34_" gradientUnits="userSpaceOnUse" x1="0.3529" y1="104.2947" x2="230.0019" y2="104.2947">
			<stop  offset="0" style="stop-color:#FF0000"/>
			<stop  offset="0.5" style="stop-color:#EEFA29"/>
			<stop  offset="1" style="stop-color:#0EFF47"/>
		</linearGradient>
		<polygon class="st33" points="42.2,106 42.5,104 34.6,102.6 34.3,104.6 		"/>
	</g>
	<g>
		<linearGradient id="SVGID_35_" gradientUnits="userSpaceOnUse" x1="0.3529" y1="108.887" x2="230.0019" y2="108.887">
			<stop  offset="0" style="stop-color:#FF0000"/>
			<stop  offset="0.5" style="stop-color:#EEFA29"/>
			<stop  offset="1" style="stop-color:#0EFF47"/>
		</linearGradient>
		<polygon class="st34" points="1.5,109.1 19.4,110.7 19.6,108.7 1.7,107.1 		"/>
		<linearGradient id="SVGID_36_" gradientUnits="userSpaceOnUse" x1="0.3529" y1="111.2576" x2="230.0019" y2="111.2576">
			<stop  offset="0" style="stop-color:#FF0000"/>
			<stop  offset="0.5" style="stop-color:#EEFA29"/>
			<stop  offset="1" style="stop-color:#0EFF47"/>
		</linearGradient>
		<polygon class="st35" points="41.6,112.6 41.7,110.6 33.8,109.9 33.6,111.9 		"/>
	</g>
	<g>
		<linearGradient id="SVGID_37_" gradientUnits="userSpaceOnUse" x1="0.3529" y1="118.2588" x2="230.0019" y2="118.2588">
			<stop  offset="0" style="stop-color:#FF0000"/>
			<stop  offset="0.5" style="stop-color:#EEFA29"/>
			<stop  offset="1" style="stop-color:#0EFF47"/>
		</linearGradient>
		<rect x="1.3" y="117.3" class="st36" width="18" height="2"/>
		<linearGradient id="SVGID_38_" gradientUnits="userSpaceOnUse" x1="0.3529" y1="118.2588" x2="230.0019" y2="118.2588">
			<stop  offset="0" style="stop-color:#FF0000"/>
			<stop  offset="0.5" style="stop-color:#EEFA29"/>
			<stop  offset="1" style="stop-color:#0EFF47"/>
		</linearGradient>
		<rect x="33.5" y="117.3" class="st37" width="8" height="2"/>
	</g>
	<g>
		<linearGradient id="SVGID_39_" gradientUnits="userSpaceOnUse" x1="0.3529" y1="127.6157" x2="230.0019" y2="127.6157">
			<stop  offset="0" style="stop-color:#FF0000"/>
			<stop  offset="0.5" style="stop-color:#EEFA29"/>
			<stop  offset="1" style="stop-color:#0EFF47"/>
		</linearGradient>
		<polygon class="st38" points="2,129.4 20,127.8 19.8,125.8 1.8,127.4 		"/>
		<linearGradient id="SVGID_40_" gradientUnits="userSpaceOnUse" x1="0.3529" y1="125.2451" x2="230.0019" y2="125.2451">
			<stop  offset="0" style="stop-color:#FF0000"/>
			<stop  offset="0.5" style="stop-color:#EEFA29"/>
			<stop  offset="1" style="stop-color:#0EFF47"/>
		</linearGradient>
		<polygon class="st39" points="42.1,125.9 41.9,123.9 33.9,124.6 34.1,126.6 		"/>
	</g>
	<g>
		<linearGradient id="SVGID_41_" gradientUnits="userSpaceOnUse" x1="0.3529" y1="136.8864" x2="230.0019" y2="136.8864">
			<stop  offset="0" style="stop-color:#FF0000"/>
			<stop  offset="0.5" style="stop-color:#EEFA29"/>
			<stop  offset="1" style="stop-color:#0EFF47"/>
		</linearGradient>
		<polygon class="st40" points="3.6,139.4 21.3,136.3 21,134.3 3.3,137.5 		"/>
		<linearGradient id="SVGID_42_" gradientUnits="userSpaceOnUse" x1="0.3529" y1="132.1632" x2="230.0019" y2="132.1632">
			<stop  offset="0" style="stop-color:#FF0000"/>
			<stop  offset="0.5" style="stop-color:#EEFA29"/>
			<stop  offset="1" style="stop-color:#0EFF47"/>
		</linearGradient>
		<polygon class="st41" points="43.2,132.5 42.8,130.5 35,131.9 35.3,133.8 		"/>
	</g>
	<g>
		<linearGradient id="SVGID_43_" gradientUnits="userSpaceOnUse" x1="0.3529" y1="146.0005" x2="230.0019" y2="146.0005">
			<stop  offset="0" style="stop-color:#FF0000"/>
			<stop  offset="0.5" style="stop-color:#EEFA29"/>
			<stop  offset="1" style="stop-color:#0EFF47"/>
		</linearGradient>
		<polygon class="st42" points="6.1,149.3 23.4,144.6 22.9,142.7 5.5,147.4 		"/>
		<linearGradient id="SVGID_44_" gradientUnits="userSpaceOnUse" x1="0.3529" y1="138.9606" x2="230.0019" y2="138.9606">
			<stop  offset="0" style="stop-color:#FF0000"/>
			<stop  offset="0.5" style="stop-color:#EEFA29"/>
			<stop  offset="1" style="stop-color:#0EFF47"/>
		</linearGradient>
		<polygon class="st43" points="44.9,138.9 44.4,137 36.6,139 37.2,141 		"/>
	</g>
	<g>
		<linearGradient id="SVGID_45_" gradientUnits="userSpaceOnUse" x1="0.3529" y1="154.8884" x2="230.0019" y2="154.8884">
			<stop  offset="0" style="stop-color:#FF0000"/>
			<stop  offset="0.5" style="stop-color:#EEFA29"/>
			<stop  offset="1" style="stop-color:#0EFF47"/>
		</linearGradient>
		<polygon class="st44" points="9.4,158.9 26.3,152.7 25.6,150.9 8.7,157 		"/>
		<linearGradient id="SVGID_46_" gradientUnits="userSpaceOnUse" x1="0.3529" y1="145.5854" x2="229.9972" y2="145.5854">
			<stop  offset="0" style="stop-color:#FF0000"/>
			<stop  offset="0.5" style="stop-color:#EEFA29"/>
			<stop  offset="1" style="stop-color:#0EFF47"/>
		</linearGradient>
		<polygon class="st45" points="47.1,145.2 46.4,143.3 38.9,146 39.6,147.9 		"/>
	</g>
	<g>
		<linearGradient id="SVGID_47_" gradientUnits="userSpaceOnUse" x1="0.3529" y1="163.4826" x2="230.0019" y2="163.4826">
			<stop  offset="0" style="stop-color:#FF0000"/>
			<stop  offset="0.5" style="stop-color:#EEFA29"/>
			<stop  offset="1" style="stop-color:#0EFF47"/>
		</linearGradient>
		<polygon class="st46" points="13.5,168.2 29.8,160.6 29,158.8 12.6,166.4 		"/>
		<linearGradient id="SVGID_48_" gradientUnits="userSpaceOnUse" x1="0.3529" y1="151.9874" x2="230.0019" y2="151.9874">
			<stop  offset="0" style="stop-color:#FF0000"/>
			<stop  offset="0.5" style="stop-color:#EEFA29"/>
			<stop  offset="1" style="stop-color:#0EFF47"/>
		</linearGradient>
		<polygon class="st47" points="49.9,151.2 49.1,149.4 41.8,152.8 42.7,154.6 		"/>
	</g>
	<g>
		<linearGradient id="SVGID_49_" gradientUnits="userSpaceOnUse" x1="0.3529" y1="171.7177" x2="230.0019" y2="171.7177">
			<stop  offset="0" style="stop-color:#FF0000"/>
			<stop  offset="0.5" style="stop-color:#EEFA29"/>
			<stop  offset="1" style="stop-color:#0EFF47"/>
		</linearGradient>
		<polygon class="st48" points="18.4,177.1 34,168.1 33,166.4 17.4,175.4 		"/>
		<linearGradient id="SVGID_50_" gradientUnits="userSpaceOnUse" x1="0.3529" y1="158.1176" x2="230.0019" y2="158.1176">
			<stop  offset="0" style="stop-color:#FF0000"/>
			<stop  offset="0.5" style="stop-color:#EEFA29"/>
			<stop  offset="1" style="stop-color:#0EFF47"/>
		</linearGradient>
		<polygon class="st49" points="53.2,157 52.2,155.3 45.3,159.3 46.3,161 		"/>
	</g>
	<g>
		<linearGradient id="SVGID_51_" gradientUnits="userSpaceOnUse" x1="0.3529" y1="179.5309" x2="230.0019" y2="179.5309">
			<stop  offset="0" style="stop-color:#FF0000"/>
			<stop  offset="0.5" style="stop-color:#EEFA29"/>
			<stop  offset="1" style="stop-color:#0EFF47"/>
		</linearGradient>
		<polygon class="st50" points="24.1,185.5 38.8,175.2 37.7,173.5 22.9,183.9 		"/>
		<linearGradient id="SVGID_52_" gradientUnits="userSpaceOnUse" x1="0.3529" y1="163.9296" x2="230.0019" y2="163.9296">
			<stop  offset="0" style="stop-color:#FF0000"/>
			<stop  offset="0.5" style="stop-color:#EEFA29"/>
			<stop  offset="1" style="stop-color:#0EFF47"/>
		</linearGradient>
		<polygon class="st51" points="57,162.5 55.9,160.8 49.3,165.4 50.5,167 		"/>
	</g>
	<g>
		<linearGradient id="SVGID_53_" gradientUnits="userSpaceOnUse" x1="0.3529" y1="9.4301" x2="230.0019" y2="9.4301">
			<stop  offset="0" style="stop-color:#FF0000"/>
			<stop  offset="0.5" style="stop-color:#EEFA29"/>
			<stop  offset="1" style="stop-color:#0EFF47"/>
		</linearGradient>
		<polygon class="st52" points="126.9,0.6 125.4,18.5 123.4,18.3 124.9,0.4 		"/>
		<linearGradient id="SVGID_54_" gradientUnits="userSpaceOnUse" x1="0.3529" y1="36.5266" x2="230.0019" y2="36.5266">
			<stop  offset="0" style="stop-color:#FF0000"/>
			<stop  offset="0.5" style="stop-color:#EEFA29"/>
			<stop  offset="1" style="stop-color:#0EFF47"/>
		</linearGradient>
		<polygon class="st53" points="123.4,40.6 121.4,40.4 122.1,32.5 124.1,32.6 		"/>
	</g>
	<g>
		<linearGradient id="SVGID_55_" gradientUnits="userSpaceOnUse" x1="0.3529" y1="10.8235" x2="230.0019" y2="10.8235">
			<stop  offset="0" style="stop-color:#FF0000"/>
			<stop  offset="0.5" style="stop-color:#EEFA29"/>
			<stop  offset="1" style="stop-color:#0EFF47"/>
		</linearGradient>
		<polygon class="st54" points="137,2.1 133.8,19.9 131.9,19.5 135,1.8 		"/>
		<linearGradient id="SVGID_56_" gradientUnits="userSpaceOnUse" x1="0.3529" y1="37.6103" x2="230.0019" y2="37.6103">
			<stop  offset="0" style="stop-color:#FF0000"/>
			<stop  offset="0.5" style="stop-color:#EEFA29"/>
			<stop  offset="1" style="stop-color:#0EFF47"/>
		</linearGradient>
		<polygon class="st55" points="130,41.7 128,41.4 129.4,33.5 131.4,33.8 		"/>
	</g>
	<g>
		<linearGradient id="SVGID_57_" gradientUnits="userSpaceOnUse" x1="0.3529" y1="13.0196" x2="230.0019" y2="13.0196">
			<stop  offset="0" style="stop-color:#FF0000"/>
			<stop  offset="0.5" style="stop-color:#EEFA29"/>
			<stop  offset="1" style="stop-color:#0EFF47"/>
		</linearGradient>
		<polygon class="st56" points="146.8,4.6 142.2,22 140.2,21.5 144.9,4.1 		"/>
		<linearGradient id="SVGID_58_" gradientUnits="userSpaceOnUse" x1="0.3529" y1="39.2928" x2="230.0019" y2="39.2928">
			<stop  offset="0" style="stop-color:#FF0000"/>
			<stop  offset="0.5" style="stop-color:#EEFA29"/>
			<stop  offset="1" style="stop-color:#0EFF47"/>
		</linearGradient>
		<polygon class="st57" points="136.4,43.4 134.5,42.9 136.6,35.2 138.5,35.7 		"/>
	</g>
	<g>
		<linearGradient id="SVGID_59_" gradientUnits="userSpaceOnUse" x1="0.3529" y1="16.0016" x2="230.0019" y2="16.0016">
			<stop  offset="0" style="stop-color:#FF0000"/>
			<stop  offset="0.5" style="stop-color:#EEFA29"/>
			<stop  offset="1" style="stop-color:#0EFF47"/>
		</linearGradient>
		<polygon class="st58" points="156.4,7.9 150.3,24.8 148.4,24.1 154.6,7.2 		"/>
		<linearGradient id="SVGID_60_" gradientUnits="userSpaceOnUse" x1="0.3529" y1="41.5613" x2="230.0019" y2="41.5613">
			<stop  offset="0" style="stop-color:#FF0000"/>
			<stop  offset="0.5" style="stop-color:#EEFA29"/>
			<stop  offset="1" style="stop-color:#0EFF47"/>
		</linearGradient>
		<polygon class="st59" points="142.7,45.7 140.8,45 143.6,37.5 145.4,38.1 		"/>
	</g>
	<g>
		<linearGradient id="SVGID_61_" gradientUnits="userSpaceOnUse" x1="0.3529" y1="19.747" x2="230.0019" y2="19.747">
			<stop  offset="0" style="stop-color:#FF0000"/>
			<stop  offset="0.5" style="stop-color:#EEFA29"/>
			<stop  offset="1" style="stop-color:#0EFF47"/>
		</linearGradient>
		<polygon class="st60" points="165.7,12 158.1,28.3 156.3,27.5 163.9,11.2 		"/>
		<linearGradient id="SVGID_62_" gradientUnits="userSpaceOnUse" x1="0.3529" y1="44.3986" x2="230.0019" y2="44.3986">
			<stop  offset="0" style="stop-color:#FF0000"/>
			<stop  offset="0.5" style="stop-color:#EEFA29"/>
			<stop  offset="1" style="stop-color:#0EFF47"/>
		</linearGradient>
		<polygon class="st61" points="148.7,48.4 146.9,47.6 150.3,40.4 152.1,41.2 		"/>
	</g>
	<g>
		<linearGradient id="SVGID_63_" gradientUnits="userSpaceOnUse" x1="0.3529" y1="24.2271" x2="230.0019" y2="24.2271">
			<stop  offset="0" style="stop-color:#FF0000"/>
			<stop  offset="0.5" style="stop-color:#EEFA29"/>
			<stop  offset="1" style="stop-color:#0EFF47"/>
		</linearGradient>
		<polygon class="st62" points="174.6,16.9 165.6,32.5 163.9,31.5 172.9,15.9 		"/>
		<linearGradient id="SVGID_64_" gradientUnits="userSpaceOnUse" x1="0.3529" y1="47.783" x2="230.0019" y2="47.783">
			<stop  offset="0" style="stop-color:#FF0000"/>
			<stop  offset="0.5" style="stop-color:#EEFA29"/>
			<stop  offset="1" style="stop-color:#0EFF47"/>
		</linearGradient>
		<polygon class="st63" points="154.5,51.7 152.8,50.7 156.8,43.8 158.5,44.8 		"/>
	</g>
	<g>
		<linearGradient id="SVGID_65_" gradientUnits="userSpaceOnUse" x1="0.3529" y1="29.408" x2="230.0019" y2="29.408">
			<stop  offset="0" style="stop-color:#FF0000"/>
			<stop  offset="0.5" style="stop-color:#EEFA29"/>
			<stop  offset="1" style="stop-color:#0EFF47"/>
		</linearGradient>
		<polygon class="st64" points="183.1,22.6 172.7,37.4 171.1,36.2 181.4,21.5 		"/>
		<linearGradient id="SVGID_66_" gradientUnits="userSpaceOnUse" x1="0.3529" y1="51.6889" x2="230.0019" y2="51.6889">
			<stop  offset="0" style="stop-color:#FF0000"/>
			<stop  offset="0.5" style="stop-color:#EEFA29"/>
			<stop  offset="1" style="stop-color:#0EFF47"/>
		</linearGradient>
		<polygon class="st65" points="160,55.5 158.4,54.4 162.9,47.8 164.6,49 		"/>
	</g>
	<g>
		<linearGradient id="SVGID_67_" gradientUnits="userSpaceOnUse" x1="0.3529" y1="35.25" x2="230.0019" y2="35.25">
			<stop  offset="0" style="stop-color:#FF0000"/>
			<stop  offset="0.5" style="stop-color:#EEFA29"/>
			<stop  offset="1" style="stop-color:#0EFF47"/>
		</linearGradient>
		<polygon class="st66" points="191,29 179.4,42.8 177.9,41.5 189.4,27.7 		"/>
		<linearGradient id="SVGID_68_" gradientUnits="userSpaceOnUse" x1="0.3529" y1="56.0865" x2="230.0019" y2="56.0865">
			<stop  offset="0" style="stop-color:#FF0000"/>
			<stop  offset="0.5" style="stop-color:#EEFA29"/>
			<stop  offset="1" style="stop-color:#0EFF47"/>
		</linearGradient>
		<polygon class="st67" points="165.1,59.8 163.6,58.5 168.7,52.4 170.3,53.7 		"/>
	</g>
	<g>
		<linearGradient id="SVGID_69_" gradientUnits="userSpaceOnUse" x1="0.3529" y1="41.7089" x2="230.0019" y2="41.7089">
			<stop  offset="0" style="stop-color:#FF0000"/>
			<stop  offset="0.5" style="stop-color:#EEFA29"/>
			<stop  offset="1" style="stop-color:#0EFF47"/>
		</linearGradient>
		<polygon class="st68" points="198.3,36.1 185.5,48.8 184.1,47.4 196.9,34.6 		"/>
		<linearGradient id="SVGID_70_" gradientUnits="userSpaceOnUse" x1="0.3529" y1="60.9422" x2="230.0019" y2="60.9422">
			<stop  offset="0" style="stop-color:#FF0000"/>
			<stop  offset="0.5" style="stop-color:#EEFA29"/>
			<stop  offset="1" style="stop-color:#0EFF47"/>
		</linearGradient>
		<polygon class="st69" points="169.8,64.5 168.4,63.1 174.1,57.4 175.5,58.8 		"/>
	</g>
	<g>
		<linearGradient id="SVGID_71_" gradientUnits="userSpaceOnUse" x1="0.3529" y1="48.7354" x2="230.0019" y2="48.7354">
			<stop  offset="0" style="stop-color:#FF0000"/>
			<stop  offset="0.5" style="stop-color:#EEFA29"/>
			<stop  offset="1" style="stop-color:#0EFF47"/>
		</linearGradient>
		<polygon class="st70" points="204.9,43.7 191.2,55.3 189.9,53.8 203.7,42.2 		"/>
		<linearGradient id="SVGID_72_" gradientUnits="userSpaceOnUse" x1="0.3529" y1="66.2193" x2="230.0019" y2="66.2193">
			<stop  offset="0" style="stop-color:#FF0000"/>
			<stop  offset="0.5" style="stop-color:#EEFA29"/>
			<stop  offset="1" style="stop-color:#0EFF47"/>
		</linearGradient>
		<polygon class="st71" points="174.1,69.6 172.9,68 179,62.9 180.3,64.4 		"/>
	</g>
	<g>
		<linearGradient id="SVGID_73_" gradientUnits="userSpaceOnUse" x1="0.3529" y1="56.2761" x2="230.0019" y2="56.2761">
			<stop  offset="0" style="stop-color:#FF0000"/>
			<stop  offset="0.5" style="stop-color:#EEFA29"/>
			<stop  offset="1" style="stop-color:#0EFF47"/>
		</linearGradient>
		<polygon class="st72" points="210.9,51.9 196.2,62.3 195,60.6 209.8,50.3 		"/>
		<linearGradient id="SVGID_74_" gradientUnits="userSpaceOnUse" x1="0.3529" y1="71.8774" x2="230.0019" y2="71.8774">
			<stop  offset="0" style="stop-color:#FF0000"/>
			<stop  offset="0.5" style="stop-color:#EEFA29"/>
			<stop  offset="1" style="stop-color:#0EFF47"/>
		</linearGradient>
		<polygon class="st73" points="178,75 176.8,73.4 183.4,68.8 184.5,70.4 		"/>
	</g>
	<g>
		<linearGradient id="SVGID_75_" gradientUnits="userSpaceOnUse" x1="0.3529" y1="64.2735" x2="230.0019" y2="64.2735">
			<stop  offset="0" style="stop-color:#FF0000"/>
			<stop  offset="0.5" style="stop-color:#EEFA29"/>
			<stop  offset="1" style="stop-color:#0EFF47"/>
		</linearGradient>
		<polygon class="st74" points="216.2,60.6 200.6,69.6 199.6,67.9 215.2,58.9 		"/>
		<linearGradient id="SVGID_76_" gradientUnits="userSpaceOnUse" x1="0.3529" y1="77.8736" x2="230.0019" y2="77.8736">
			<stop  offset="0" style="stop-color:#FF0000"/>
			<stop  offset="0.5" style="stop-color:#EEFA29"/>
			<stop  offset="1" style="stop-color:#0EFF47"/>
		</linearGradient>
		<polygon class="st75" points="181.3,80.7 180.3,79 187.3,75 188.3,76.7 		"/>
	</g>
	<g>
		<linearGradient id="SVGID_77_" gradientUnits="userSpaceOnUse" x1="0.3529" y1="72.6669" x2="230.0019" y2="72.6669">
			<stop  offset="0" style="stop-color:#FF0000"/>
			<stop  offset="0.5" style="stop-color:#EEFA29"/>
			<stop  offset="1" style="stop-color:#0EFF47"/>
		</linearGradient>
		<polygon class="st76" points="220.6,69.8 204.3,77.4 203.5,75.6 219.8,68 		"/>
		<linearGradient id="SVGID_78_" gradientUnits="userSpaceOnUse" x1="0.3529" y1="84.1621" x2="230.0019" y2="84.1621">
			<stop  offset="0" style="stop-color:#FF0000"/>
			<stop  offset="0.5" style="stop-color:#EEFA29"/>
			<stop  offset="1" style="stop-color:#0EFF47"/>
		</linearGradient>
		<polygon class="st77" points="184.2,86.8 183.3,84.9 190.6,81.6 191.4,83.4 		"/>
	</g>
	<g>
		<linearGradient id="SVGID_79_" gradientUnits="userSpaceOnUse" x1="0.3529" y1="81.3923" x2="230.0019" y2="81.3923">
			<stop  offset="0" style="stop-color:#FF0000"/>
			<stop  offset="0.5" style="stop-color:#EEFA29"/>
			<stop  offset="1" style="stop-color:#0EFF47"/>
		</linearGradient>
		<polygon class="st78" points="224.3,79.3 207.4,85.4 206.7,83.5 223.6,77.4 		"/>
		<linearGradient id="SVGID_80_" gradientUnits="userSpaceOnUse" x1="0.3529" y1="90.6952" x2="229.9972" y2="90.6952">
			<stop  offset="0" style="stop-color:#FF0000"/>
			<stop  offset="0.5" style="stop-color:#EEFA29"/>
			<stop  offset="1" style="stop-color:#0EFF47"/>
		</linearGradient>
		<polygon class="st79" points="186.5,93 185.8,91.1 193.3,88.4 194,90.3 		"/>
	</g>
	<g>
		<linearGradient id="SVGID_81_" gradientUnits="userSpaceOnUse" x1="0.3529" y1="90.3833" x2="230.0019" y2="90.3833">
			<stop  offset="0" style="stop-color:#FF0000"/>
			<stop  offset="0.5" style="stop-color:#EEFA29"/>
			<stop  offset="1" style="stop-color:#0EFF47"/>
		</linearGradient>
		<polygon class="st80" points="227.1,89 209.7,93.7 209.2,91.7 226.6,87.1 		"/>
		<linearGradient id="SVGID_82_" gradientUnits="userSpaceOnUse" x1="0.3529" y1="97.4232" x2="230.0019" y2="97.4232">
			<stop  offset="0" style="stop-color:#FF0000"/>
			<stop  offset="0.5" style="stop-color:#EEFA29"/>
			<stop  offset="1" style="stop-color:#0EFF47"/>
		</linearGradient>
		<polygon class="st81" points="188.2,99.4 187.7,97.5 195.5,95.4 196,97.4 		"/>
	</g>
	<g>
		<linearGradient id="SVGID_83_" gradientUnits="userSpaceOnUse" x1="0.3529" y1="99.5715" x2="230.0019" y2="99.5715">
			<stop  offset="0" style="stop-color:#FF0000"/>
			<stop  offset="0.5" style="stop-color:#EEFA29"/>
			<stop  offset="1" style="stop-color:#0EFF47"/>
		</linearGradient>
		<polygon class="st82" points="229,99 211.3,102.1 211,100.1 228.7,97 		"/>
		<linearGradient id="SVGID_84_" gradientUnits="userSpaceOnUse" x1="0.3529" y1="104.2947" x2="230.0019" y2="104.2947">
			<stop  offset="0" style="stop-color:#FF0000"/>
			<stop  offset="0.5" style="stop-color:#EEFA29"/>
			<stop  offset="1" style="stop-color:#0EFF47"/>
		</linearGradient>
		<polygon class="st83" points="189.4,106 189.1,104 197,102.6 197.3,104.6 		"/>
	</g>
	<g>
		<linearGradient id="SVGID_85_" gradientUnits="userSpaceOnUse" x1="0.3529" y1="108.887" x2="230.0019" y2="108.887">
			<stop  offset="0" style="stop-color:#FF0000"/>
			<stop  offset="0.5" style="stop-color:#EEFA29"/>
			<stop  offset="1" style="stop-color:#0EFF47"/>
		</linearGradient>
		<polygon class="st84" points="230.1,109.1 212.2,110.7 212,108.7 229.9,107.1 		"/>
		<linearGradient id="SVGID_86_" gradientUnits="userSpaceOnUse" x1="0.3529" y1="111.2576" x2="230.0019" y2="111.2576">
			<stop  offset="0" style="stop-color:#FF0000"/>
			<stop  offset="0.5" style="stop-color:#EEFA29"/>
			<stop  offset="1" style="stop-color:#0EFF47"/>
		</linearGradient>
		<polygon class="st85" points="190,112.6 189.9,110.6 197.8,109.9 198,111.9 		"/>
	</g>
	<g>
		<linearGradient id="SVGID_87_" gradientUnits="userSpaceOnUse" x1="0.3529" y1="118.2588" x2="230.0019" y2="118.2588">
			<stop  offset="0" style="stop-color:#FF0000"/>
			<stop  offset="0.5" style="stop-color:#EEFA29"/>
			<stop  offset="1" style="stop-color:#0EFF47"/>
		</linearGradient>
		<rect x="212.3" y="117.3" class="st86" width="18" height="2"/>
		<linearGradient id="SVGID_88_" gradientUnits="userSpaceOnUse" x1="0.3529" y1="118.2588" x2="230.0019" y2="118.2588">
			<stop  offset="0" style="stop-color:#FF0000"/>
			<stop  offset="0.5" style="stop-color:#EEFA29"/>
			<stop  offset="1" style="stop-color:#0EFF47"/>
		</linearGradient>
		<rect x="190.1" y="117.3" class="st87" width="8" height="2"/>
	</g>
	<g>
		<linearGradient id="SVGID_89_" gradientUnits="userSpaceOnUse" x1="0.3529" y1="127.6157" x2="230.0019" y2="127.6157">
			<stop  offset="0" style="stop-color:#FF0000"/>
			<stop  offset="0.5" style="stop-color:#EEFA29"/>
			<stop  offset="1" style="stop-color:#0EFF47"/>
		</linearGradient>
		<polygon class="st88" points="229.6,129.4 211.6,127.8 211.8,125.8 229.8,127.4 		"/>
		<linearGradient id="SVGID_90_" gradientUnits="userSpaceOnUse" x1="0.3529" y1="125.2451" x2="230.0019" y2="125.2451">
			<stop  offset="0" style="stop-color:#FF0000"/>
			<stop  offset="0.5" style="stop-color:#EEFA29"/>
			<stop  offset="1" style="stop-color:#0EFF47"/>
		</linearGradient>
		<polygon class="st89" points="189.5,125.9 189.7,123.9 197.7,124.6 197.5,126.6 		"/>
	</g>
	<g>
		<linearGradient id="SVGID_91_" gradientUnits="userSpaceOnUse" x1="0.3529" y1="136.8864" x2="230.0019" y2="136.8864">
			<stop  offset="0" style="stop-color:#FF0000"/>
			<stop  offset="0.5" style="stop-color:#EEFA29"/>
			<stop  offset="1" style="stop-color:#0EFF47"/>
		</linearGradient>
		<polygon class="st90" points="228,139.4 210.3,136.3 210.6,134.3 228.3,137.5 		"/>
		<linearGradient id="SVGID_92_" gradientUnits="userSpaceOnUse" x1="0.3529" y1="132.1632" x2="230.0019" y2="132.1632">
			<stop  offset="0" style="stop-color:#FF0000"/>
			<stop  offset="0.5" style="stop-color:#EEFA29"/>
			<stop  offset="1" style="stop-color:#0EFF47"/>
		</linearGradient>
		<polygon class="st91" points="188.4,132.5 188.8,130.5 196.6,131.9 196.3,133.8 		"/>
	</g>
	<g>
		<linearGradient id="SVGID_93_" gradientUnits="userSpaceOnUse" x1="0.3529" y1="146.0005" x2="230.0019" y2="146.0005">
			<stop  offset="0" style="stop-color:#FF0000"/>
			<stop  offset="0.5" style="stop-color:#EEFA29"/>
			<stop  offset="1" style="stop-color:#0EFF47"/>
		</linearGradient>
		<polygon class="st92" points="225.5,149.3 208.2,144.6 208.7,142.7 226.1,147.4 		"/>
		<linearGradient id="SVGID_94_" gradientUnits="userSpaceOnUse" x1="0.3529" y1="138.9606" x2="230.0019" y2="138.9606">
			<stop  offset="0" style="stop-color:#FF0000"/>
			<stop  offset="0.5" style="stop-color:#EEFA29"/>
			<stop  offset="1" style="stop-color:#0EFF47"/>
		</linearGradient>
		<polygon class="st93" points="186.7,138.9 187.2,137 195,139 194.4,141 		"/>
	</g>
	<g>
		<linearGradient id="SVGID_95_" gradientUnits="userSpaceOnUse" x1="0.3529" y1="154.8884" x2="230.0019" y2="154.8884">
			<stop  offset="0" style="stop-color:#FF0000"/>
			<stop  offset="0.5" style="stop-color:#EEFA29"/>
			<stop  offset="1" style="stop-color:#0EFF47"/>
		</linearGradient>
		<polygon class="st94" points="222.2,158.9 205.3,152.7 206,150.9 222.9,157 		"/>
		<linearGradient id="SVGID_96_" gradientUnits="userSpaceOnUse" x1="0.3529" y1="145.5854" x2="229.9972" y2="145.5854">
			<stop  offset="0" style="stop-color:#FF0000"/>
			<stop  offset="0.5" style="stop-color:#EEFA29"/>
			<stop  offset="1" style="stop-color:#0EFF47"/>
		</linearGradient>
		<polygon class="st95" points="184.5,145.2 185.2,143.3 192.7,146 192,147.9 		"/>
	</g>
	<g>
		<linearGradient id="SVGID_97_" gradientUnits="userSpaceOnUse" x1="0.3529" y1="163.4826" x2="230.0019" y2="163.4826">
			<stop  offset="0" style="stop-color:#FF0000"/>
			<stop  offset="0.5" style="stop-color:#EEFA29"/>
			<stop  offset="1" style="stop-color:#0EFF47"/>
		</linearGradient>
		<polygon class="st96" points="218.1,168.2 201.8,160.6 202.6,158.8 219,166.4 		"/>
		<linearGradient id="SVGID_98_" gradientUnits="userSpaceOnUse" x1="0.3529" y1="151.9874" x2="230.0019" y2="151.9874">
			<stop  offset="0" style="stop-color:#FF0000"/>
			<stop  offset="0.5" style="stop-color:#EEFA29"/>
			<stop  offset="1" style="stop-color:#0EFF47"/>
		</linearGradient>
		<polygon class="st97" points="181.7,151.2 182.5,149.4 189.8,152.8 188.9,154.6 		"/>
	</g>
	<g>
		<linearGradient id="SVGID_99_" gradientUnits="userSpaceOnUse" x1="0.3529" y1="171.7177" x2="230.0019" y2="171.7177">
			<stop  offset="0" style="stop-color:#FF0000"/>
			<stop  offset="0.5" style="stop-color:#EEFA29"/>
			<stop  offset="1" style="stop-color:#0EFF47"/>
		</linearGradient>
		<polygon class="st98" points="213.2,177.1 197.6,168.1 198.6,166.4 214.2,175.4 		"/>
		<linearGradient id="SVGID_100_" gradientUnits="userSpaceOnUse" x1="0.3529" y1="158.1176" x2="230.0019" y2="158.1176">
			<stop  offset="0" style="stop-color:#FF0000"/>
			<stop  offset="0.5" style="stop-color:#EEFA29"/>
			<stop  offset="1" style="stop-color:#0EFF47"/>
		</linearGradient>
		<polygon class="st99" points="178.4,157 179.4,155.3 186.3,159.3 185.3,161 		"/>
	</g>
	<g>
		<linearGradient id="SVGID_101_" gradientUnits="userSpaceOnUse" x1="0.3529" y1="179.5309" x2="230.0019" y2="179.5309">
			<stop  offset="0" style="stop-color:#FF0000"/>
			<stop  offset="0.5" style="stop-color:#EEFA29"/>
			<stop  offset="1" style="stop-color:#0EFF47"/>
		</linearGradient>
		<polygon class="st100" points="207.5,185.5 192.8,175.2 193.9,173.5 208.7,183.9 		"/>
		<linearGradient id="SVGID_102_" gradientUnits="userSpaceOnUse" x1="0.3529" y1="163.9296" x2="230.0019" y2="163.9296">
			<stop  offset="0" style="stop-color:#FF0000"/>
			<stop  offset="0.5" style="stop-color:#EEFA29"/>
			<stop  offset="1" style="stop-color:#0EFF47"/>
		</linearGradient>
		<polygon class="st101" points="174.6,162.5 175.7,160.8 182.3,165.4 181.1,167 		"/>
	</g>
</g>
</svg>
